<?xml version="1.0" encoding="utf-8"?>
<!-- Generator: Adobe Illustrator 16.0.0, SVG Export Plug-In . SVG Version: 6.00 Build 0)  -->
<!DOCTYPE svg PUBLIC "-//W3C//DTD SVG 1.1//EN" "http://www.w3.org/Graphics/SVG/1.1/DTD/svg11.dtd">
<svg version="1.1" id="Layer_1" xmlns="http://www.w3.org/2000/svg" xmlns:xlink="http://www.w3.org/1999/xlink" x="0px" y="0px"
	 width="152.527px" height="152.527px" viewBox="0 0 152.527 152.527" style="enable-background:new 0 0 152.527 152.527;"
	 xml:space="preserve">
<style type="text/css">
<![CDATA[
	.st0{fill:#8E6134;}
	.st1{fill:#FACB1B;}
	.st2{fill:#FBE158;}
	.st3{fill:#FBEC9A;}
	.st4{fill:#FCF6C2;}
	.st5{fill:#00BCD4;}
]]>
</style>
<g>
	<g>
		<path class="st4" d="M37.516,75.557c0-21.053,17.128-38.182,38.182-38.182c10.807,0,20.571,4.52,27.524,11.761l3.869-3.87
			c-7.935-8.223-19.063-13.346-31.394-13.346c-24.099,0-43.636,19.536-43.636,43.636c0,12.332,5.123,23.459,13.346,31.394l3.87-3.87
			C42.037,96.129,37.516,86.364,37.516,75.557z"/>
	</g>
	<g>
		<g>
			<circle class="st5" cx="76.264" cy="76.264" r="75"/>
		</g>
		<g>
			<g>
				<path class="st3" d="M76.265,38.082c21.053,0,38.182,17.128,38.182,38.182s-17.129,38.182-38.182,38.182
					c-21.054,0-38.182-17.128-38.182-38.182S55.21,38.082,76.265,38.082 M76.265,32.627c-24.1,0-43.637,19.536-43.637,43.636
					c0,24.099,19.537,43.636,43.637,43.636c24.098,0,43.635-19.537,43.635-43.636C119.899,52.164,100.362,32.627,76.265,32.627
					L76.265,32.627z"/>
			</g>
			<g>
				<path class="st1" d="M76.265,114.445c-21.054,0-38.182-17.128-38.182-38.182S55.21,38.082,76.265,38.082
					c21.053,0,38.182,17.128,38.182,38.182S97.317,114.445,76.265,114.445z"/>
			</g>
			<g>
				<path class="st2" d="M76.265,38.082c-21.054,0-38.182,17.128-38.182,38.182c0,10.835,4.544,20.622,11.817,27.579L103.843,49.9
					C96.888,42.625,87.099,38.082,76.265,38.082z"/>
			</g>
		</g>
		<g>
			<path class="st0" d="M52.866,62.026c0-1.72,1.359-3.079,3.079-3.079h9.719c3.56,0,6.319,1,8.159,2.839
				c1.56,1.56,2.399,3.759,2.399,6.399v0.08c0,4.399-2.2,7.119-5.599,8.519l4.279,5.199c0.601,0.76,1,1.398,1,2.359
				c0,1.719-1.439,2.839-2.919,2.839c-1.399,0-2.319-0.68-3.039-1.6l-5.999-7.599h-4.919v6.119c0,1.72-1.36,3.079-3.08,3.079
				s-3.079-1.359-3.079-3.079V62.026z M65.264,72.544c2.999,0,4.719-1.6,4.719-3.959v-0.08c0-2.64-1.84-3.999-4.839-3.999h-6.119
				v8.039H65.264z"/>
			<path class="st0" d="M77.146,68.305c0-1.68,1.359-3.04,3.039-3.04s3.041,1.36,3.041,3.04v0.28c1.479-2,3.52-3.479,6.678-3.479
				c5,0,9.758,3.919,9.758,11.078v0.08c0,7.159-4.678,11.078-9.758,11.078c-3.238,0-5.238-1.479-6.678-3.199v6.399
				c0,1.68-1.361,3.039-3.041,3.039s-3.039-1.359-3.039-3.039V68.305z M93.583,76.264v-0.08c0-3.559-2.4-5.919-5.238-5.919
				c-2.84,0-5.199,2.36-5.199,5.919v0.08c0,3.56,2.359,5.919,5.199,5.919C91.183,82.183,93.583,79.863,93.583,76.264z"/>
		</g>
	</g>
</g>
</svg>
